<?xml version="1.0" standalone="no"?>
<!DOCTYPE svg PUBLIC "-//W3C//DTD SVG 20010904//EN"
 "http://www.w3.org/TR/2001/REC-SVG-20010904/DTD/svg10.dtd">
<svg version="1.0" xmlns="http://www.w3.org/2000/svg"
 width="1104.000000pt" height="1104.000000pt" viewBox="0 0 1104.000000 1104.000000"
 preserveAspectRatio="xMidYMid meet">
<metadata>
Created by potrace 1.11, written by Peter Selinger 2001-2013
</metadata>
<g transform="translate(0.000000,1104.000000) scale(0.100000,-0.100000)"
fill="#000000" stroke="none">
<path d="M1484 8777 l1 -532 265 -1 265 -1 0 -559 c0 -307 4 -565 9 -573 6 -9
5 -12 0 -8 -12 7 -12 -293 0 -312 5 -8 5 -12 0 -8 -12 7 -12 -1573 0 -1592 6
-9 5 -12 0 -8 -12 7 -12 -293 0 -312 5 -8 5 -12 0 -8 -5 3 -9 -391 -9 -971 l0
-976 -266 1 -266 0 1 -531 1 -531 1065 -3 1065 -2 0 534 0 533 -235 1 c-129 0
-249 0 -266 1 l-31 1 0 1009 c0 555 -3 1014 -7 1020 -4 6 -4 11 1 11 4 0 7
376 7 836 l-2 836 39 -78 c21 -44 39 -83 39 -87 0 -4 16 -42 35 -83 19 -41 35
-76 35 -78 0 -2 18 -43 40 -90 22 -47 40 -88 40 -90 0 -2 15 -37 34 -78 18
-40 53 -116 76 -168 23 -52 46 -99 51 -105 5 -5 9 -15 9 -22 0 -8 13 -42 29
-76 16 -34 39 -84 51 -112 12 -27 33 -73 46 -102 13 -28 24 -54 24 -57 0 -3
15 -38 34 -78 18 -40 41 -91 51 -113 10 -22 33 -72 51 -112 19 -39 34 -74 34
-77 0 -6 50 -119 119 -269 17 -37 31 -69 31 -71 0 -2 15 -37 34 -78 18 -40 51
-111 71 -158 60 -134 95 -213 110 -245 7 -16 20 -46 28 -65 9 -19 26 -60 40
-90 14 -30 39 -89 57 -130 33 -76 64 -145 105 -235 13 -27 33 -72 45 -100 12
-27 33 -74 46 -103 13 -29 24 -55 24 -57 0 -3 11 -29 25 -58 14 -28 43 -92 64
-142 22 -49 50 -115 64 -145 14 -30 43 -95 65 -145 22 -49 51 -115 65 -145 13
-30 35 -77 47 -105 12 -27 33 -73 46 -102 13 -28 24 -54 24 -57 0 -3 15 -38
34 -78 18 -40 41 -91 51 -113 10 -22 33 -72 51 -112 19 -39 34 -74 34 -78 0
-4 13 -35 29 -69 16 -33 39 -83 51 -111 12 -27 29 -65 37 -82 l15 -33 534 0
534 0 0 203 0 202 61 -62 c34 -35 65 -63 70 -63 5 0 9 -4 9 -8 0 -5 32 -40 71
-78 39 -38 98 -97 132 -131 l61 -63 1013 0 1014 0 422 423 c233 232 426 430
430 440 3 9 2 17 -4 17 -6 0 -7 5 -3 11 5 9 6 243 4 819 0 19 0 729 0 755 0
11 0 133 0 270 0 298 -1 238 1 478 l2 199 -426 425 -426 426 -905 0 -906 -1 0
1064 c0 844 3 1064 13 1065 6 0 366 2 798 2 l785 2 0 -265 -1 -265 534 0 534
0 -2 210 c-2 255 -2 211 1 384 l3 145 -88 90 c-48 50 -92 90 -98 88 -5 -1 -8
2 -7 6 4 11 -623 638 -634 634 -5 -1 -7 2 -3 7 3 6 -3 15 -14 20 -14 8 -645
11 -2030 11 -1908 0 -2011 -1 -2012 -17 -4 -114 0 -953 5 -962 4 -6 4 -11 -1
-11 -4 0 -8 -18 -8 -39 l0 -39 270 2 270 1 -2 -1800 c-1 -990 -3 -1827 -3
-1860 l-1 -60 -16 35 c-9 19 -22 49 -29 65 -12 29 -34 79 -89 200 -14 31 -25
57 -25 60 0 3 -44 100 -96 212 -13 28 -24 54 -24 56 0 3 -16 40 -36 84 -20 43
-47 102 -60 131 -13 29 -24 54 -24 56 0 4 -56 128 -95 211 -8 17 -23 50 -33
75 -40 97 -56 129 -61 125 -3 -1 -7 7 -8 18 0 12 -22 66 -47 120 -25 54 -46
100 -46 102 0 3 -13 33 -29 67 -15 35 -40 89 -55 121 -14 32 -26 59 -26 62 0
3 -44 100 -96 212 -13 28 -24 54 -24 57 0 3 -15 39 -34 78 -19 40 -41 89 -49
108 -8 19 -26 60 -40 90 -42 93 -64 143 -87 197 -12 29 -26 50 -31 47 -5 -3
-6 1 -3 9 3 8 -13 53 -36 100 -22 47 -40 88 -40 90 0 3 -16 40 -36 84 -20 43
-47 102 -60 131 -13 29 -24 54 -24 56 0 2 -18 43 -40 90 -22 47 -40 90 -40 96
0 6 -5 8 -12 4 -6 -4 -8 -3 -5 4 4 5 -6 39 -22 74 -15 34 -38 84 -50 111 -11
26 -29 66 -40 90 -53 120 -96 217 -116 262 -23 49 -41 89 -85 190 -52 119 -95
218 -115 260 -13 29 -54 120 -80 180 -7 17 -27 60 -44 98 -17 37 -31 69 -31
71 0 2 -17 39 -37 82 -20 44 -37 81 -37 84 -6 30 -20 30 -815 30 l-798 0 1
-533z m6280 -375 c3 -5 -1 -9 -9 -9 -8 0 -12 4 -9 9 3 4 7 8 9 8 2 0 6 -4 9
-8z m-175 -3357 l906 0 1 -1055 c0 -580 -3 -1059 -7 -1065 -5 -7 -281 -10
-796 -9 l-788 1 -3 266 -2 267 -310 0 -310 0 0 999 0 1000 202 -202 201 -202
906 0z m-4619 -801 c0 -8 -19 -13 -24 -6 -3 5 1 9 9 9 8 0 15 -2 15 -3z m2234
-642 c3 -5 -1 -9 -9 -9 -8 0 -12 4 -9 9 3 4 7 8 9 8 2 0 6 -4 9 -8z m1603
-1127 c0 -8 -4 -12 -9 -9 -5 3 -6 10 -3 15 9 13 12 11 12 -6z"/>
</g>
</svg>
